<svg width="233" height="49" viewBox="0 0 233 49" fill="none" xmlns="http://www.w3.org/2000/svg">
<path d="M70.9121 7.208H74.9441C75.6694 7.208 76.3308 7.36267 76.9281 7.672C77.5254 7.97067 77.9948 8.39733 78.3361 8.952C78.6774 9.496 78.8481 10.12 78.8481 10.824C78.8481 11.528 78.6774 12.1573 78.3361 12.712C77.9948 13.2667 77.5254 13.6987 76.9281 14.008C76.3308 14.3067 75.6694 14.456 74.9441 14.456H73.0721V18.664H70.9121V7.208ZM75.0081 12.408C75.5414 12.408 75.9574 12.2533 76.2561 11.944C76.5654 11.6347 76.7201 11.2613 76.7201 10.824C76.7201 10.3867 76.5654 10.0187 76.2561 9.72C75.9574 9.41067 75.5414 9.256 75.0081 9.256H73.0721V12.408H75.0081Z" fill="#1C4DA1"/>
<path d="M80.4679 7.208H82.5639V10.104L82.4359 11.528H82.5639C82.7985 11.144 83.1399 10.8347 83.5879 10.6C84.0359 10.3653 84.5212 10.248 85.0439 10.248C86.0359 10.248 86.7932 10.5467 87.3159 11.144C87.8492 11.7307 88.1159 12.5467 88.1159 13.592V18.664H86.0199V13.848C86.0199 13.3253 85.8759 12.92 85.5879 12.632C85.3105 12.344 84.9372 12.2 84.4679 12.2C83.9132 12.2 83.4545 12.424 83.0919 12.872C82.7399 13.32 82.5639 13.8693 82.5639 14.52V18.664H80.4679V7.208Z" fill="#1C4DA1"/>
<path d="M92.5107 18.92C91.6467 18.92 90.9374 18.6693 90.3827 18.168C89.8281 17.656 89.5507 16.9893 89.5507 16.168C89.5507 15.624 89.6947 15.144 89.9827 14.728C90.2707 14.312 90.6654 13.992 91.1667 13.768C91.6681 13.544 92.2227 13.432 92.8307 13.432C93.6734 13.432 94.3934 13.5547 94.9907 13.8V13.448C94.9907 13 94.8201 12.6373 94.4787 12.36C94.1481 12.0827 93.7001 11.944 93.1347 11.944C92.7507 11.944 92.3774 12.0347 92.0147 12.216C91.6627 12.3867 91.3694 12.616 91.1347 12.904L89.7907 11.848C90.1854 11.336 90.6814 10.9413 91.2787 10.664C91.8761 10.3867 92.5267 10.248 93.2307 10.248C94.4787 10.248 95.4281 10.536 96.0787 11.112C96.7294 11.688 97.0547 12.5307 97.0547 13.64V18.664H94.9907V17.832H94.8627C94.6174 18.152 94.2921 18.4133 93.8867 18.616C93.4921 18.8187 93.0334 18.92 92.5107 18.92ZM93.0067 17.288C93.6147 17.288 94.0947 17.096 94.4467 16.712C94.8094 16.3173 94.9907 15.8587 94.9907 15.336C94.4467 15.08 93.8761 14.952 93.2787 14.952C92.1907 14.952 91.6467 15.3573 91.6467 16.168C91.6467 16.4987 91.7641 16.7707 91.9987 16.984C92.2334 17.1867 92.5694 17.288 93.0067 17.288ZM93.5667 5H95.9667L96.6547 7.016H95.1347L93.5667 5ZM90.5427 8.904L92.3667 6.888H94.1907L96.0147 8.904V9.032H94.0147L93.3747 8.104H93.1827L92.5427 9.032H90.5427V8.904Z" fill="#1C4DA1"/>
<path d="M98.9835 10.504H100.951V11.528H101.079C101.325 11.1333 101.671 10.824 102.119 10.6C102.567 10.3653 103.053 10.248 103.575 10.248C104.557 10.248 105.303 10.5467 105.815 11.144C106.327 11.7413 106.583 12.5573 106.583 13.592V18.664H104.487V13.848C104.487 13.3253 104.354 12.92 104.087 12.632C103.821 12.344 103.447 12.2 102.967 12.2C102.402 12.2 101.943 12.4187 101.591 12.856C101.25 13.2933 101.079 13.8427 101.079 14.504V18.664H98.9835V10.504Z" fill="#1C4DA1"/>
<path d="M112.312 10.504H114.28V11.528H114.408C114.664 11.1333 115.005 10.824 115.432 10.6C115.869 10.3653 116.354 10.248 116.888 10.248C117.464 10.248 117.965 10.3867 118.392 10.664C118.818 10.9307 119.122 11.272 119.304 11.688C119.57 11.2613 119.933 10.9147 120.392 10.648C120.861 10.3813 121.41 10.248 122.04 10.248C122.968 10.248 123.672 10.536 124.152 11.112C124.642 11.6773 124.888 12.4453 124.888 13.416V18.664H122.808V13.8C122.808 13.288 122.685 12.8933 122.44 12.616C122.205 12.3387 121.874 12.2 121.448 12.2C120.904 12.2 120.466 12.4187 120.136 12.856C119.816 13.2827 119.656 13.848 119.656 14.552V18.664H117.56V13.8C117.56 13.288 117.432 12.8933 117.176 12.616C116.93 12.3387 116.578 12.2 116.12 12.2C115.608 12.2 115.192 12.4187 114.872 12.856C114.562 13.2827 114.408 13.848 114.408 14.552V18.664H112.312V10.504Z" fill="#1C4DA1"/>
<path d="M130.714 18.92C129.903 18.92 129.172 18.7333 128.522 18.36C127.871 17.9867 127.359 17.4747 126.986 16.824C126.623 16.1627 126.442 15.4213 126.442 14.6C126.442 13.8213 126.623 13.1013 126.986 12.44C127.348 11.768 127.85 11.2347 128.49 10.84C129.13 10.4453 129.844 10.248 130.634 10.248C131.476 10.248 132.202 10.4293 132.81 10.792C133.418 11.1547 133.876 11.6507 134.186 12.28C134.506 12.9093 134.666 13.608 134.666 14.376C134.666 14.6213 134.65 14.856 134.618 15.08H128.49C128.596 15.7307 128.852 16.2267 129.258 16.568C129.674 16.8987 130.17 17.064 130.746 17.064C131.226 17.064 131.636 16.9627 131.978 16.76C132.33 16.5467 132.607 16.264 132.81 15.912L134.506 16.744C133.674 18.1947 132.41 18.92 130.714 18.92ZM132.65 13.592C132.628 13.336 132.532 13.0853 132.362 12.84C132.202 12.584 131.972 12.376 131.674 12.216C131.386 12.0453 131.044 11.96 130.65 11.96C130.148 11.96 129.716 12.1093 129.354 12.408C129.002 12.696 128.746 13.0907 128.586 13.592H132.65ZM130.906 5H133.306L133.994 7.016H132.474L130.906 5ZM127.882 8.904L129.706 6.888H131.53L133.354 8.904V9.032H131.354L130.714 8.104H130.522L129.882 9.032H127.882V8.904Z" fill="#1C4DA1"/>
<path d="M136.28 10.504H138.248V11.528H138.376C138.632 11.1333 138.974 10.824 139.4 10.6C139.838 10.3653 140.323 10.248 140.856 10.248C141.432 10.248 141.934 10.3867 142.36 10.664C142.787 10.9307 143.091 11.272 143.272 11.688C143.539 11.2613 143.902 10.9147 144.36 10.648C144.83 10.3813 145.379 10.248 146.008 10.248C146.936 10.248 147.64 10.536 148.12 11.112C148.611 11.6773 148.856 12.4453 148.856 13.416V18.664H146.776V13.8C146.776 13.288 146.654 12.8933 146.408 12.616C146.174 12.3387 145.843 12.2 145.416 12.2C144.872 12.2 144.435 12.4187 144.104 12.856C143.784 13.2827 143.624 13.848 143.624 14.552V18.664H141.528V13.8C141.528 13.288 141.4 12.8933 141.144 12.616C140.899 12.3387 140.547 12.2 140.088 12.2C139.576 12.2 139.16 12.4187 138.84 12.856C138.531 13.2827 138.376 13.848 138.376 14.552V18.664H136.28V10.504Z" fill="#1C4DA1"/>
<path d="M160.56 18.84L160.688 17.688H160.56C160.347 18.04 160.022 18.3333 159.584 18.568C159.158 18.8027 158.667 18.92 158.112 18.92C157.376 18.92 156.704 18.7387 156.096 18.376C155.499 18.0027 155.024 17.4907 154.672 16.84C154.331 16.1787 154.16 15.4267 154.16 14.584C154.16 13.752 154.331 13.0053 154.672 12.344C155.024 11.6827 155.499 11.1707 156.096 10.808C156.704 10.4347 157.376 10.248 158.112 10.248C158.667 10.248 159.158 10.3707 159.584 10.616C160.011 10.8507 160.336 11.144 160.56 11.496H160.688V10.504H162.64V22.12H160.56V18.84ZM158.464 16.984C158.859 16.984 159.227 16.8827 159.568 16.68C159.91 16.4773 160.182 16.1947 160.384 15.832C160.587 15.4693 160.688 15.0533 160.688 14.584C160.688 14.1147 160.587 13.6987 160.384 13.336C160.182 12.9733 159.91 12.696 159.568 12.504C159.227 12.3013 158.859 12.2 158.464 12.2C158.08 12.2 157.718 12.3013 157.376 12.504C157.035 12.696 156.763 12.9733 156.56 13.336C156.358 13.6987 156.256 14.1147 156.256 14.584C156.256 15.0533 156.358 15.4693 156.56 15.832C156.763 16.1947 157.035 16.4773 157.376 16.68C157.718 16.8827 158.08 16.984 158.464 16.984Z" fill="#1C4DA1"/>
<path d="M167.584 18.92C166.602 18.92 165.856 18.616 165.344 18.008C164.832 17.4 164.576 16.552 164.576 15.464V10.504H166.672V15.208C166.672 15.7627 166.805 16.2 167.072 16.52C167.338 16.8293 167.69 16.984 168.128 16.984C168.725 16.984 169.2 16.7653 169.552 16.328C169.904 15.8907 170.08 15.336 170.08 14.664V10.504H172.176V18.664H170.208V17.64H170.08C169.834 18.0347 169.488 18.3493 169.04 18.584C168.602 18.808 168.117 18.92 167.584 18.92Z" fill="#1C4DA1"/>
<path d="M176.636 18.92C175.772 18.92 175.062 18.6693 174.508 18.168C173.953 17.656 173.676 16.9893 173.676 16.168C173.676 15.624 173.82 15.144 174.108 14.728C174.396 14.312 174.79 13.992 175.292 13.768C175.793 13.544 176.348 13.432 176.956 13.432C177.798 13.432 178.518 13.5547 179.116 13.8V13.448C179.116 13 178.945 12.6373 178.604 12.36C178.273 12.0827 177.825 11.944 177.26 11.944C176.876 11.944 176.502 12.0347 176.14 12.216C175.788 12.3867 175.494 12.616 175.26 12.904L173.916 11.848C174.31 11.336 174.806 10.9413 175.404 10.664C176.001 10.3867 176.652 10.248 177.356 10.248C178.604 10.248 179.553 10.536 180.204 11.112C180.854 11.688 181.18 12.5307 181.18 13.64V18.664H179.116V17.832H178.988C178.742 18.152 178.417 18.4133 178.012 18.616C177.617 18.8187 177.158 18.92 176.636 18.92ZM177.132 17.288C177.74 17.288 178.22 17.096 178.572 16.712C178.934 16.3173 179.116 15.8587 179.116 15.336C178.572 15.08 178.001 14.952 177.404 14.952C176.316 14.952 175.772 15.3573 175.772 16.168C175.772 16.4987 175.889 16.7707 176.124 16.984C176.358 17.1867 176.694 17.288 177.132 17.288ZM176.604 8.552C177.126 8.37067 177.388 8.136 177.388 7.848C177.388 7.57067 177.185 7.432 176.78 7.432C176.513 7.432 176.262 7.48533 176.028 7.592L175.644 6.552C176.273 6.37067 176.737 6.28 177.036 6.28C177.601 6.28 178.033 6.408 178.332 6.664C178.63 6.90933 178.78 7.26667 178.78 7.736C178.78 8.248 178.625 8.65867 178.316 8.968C178.006 9.26667 177.558 9.45867 176.972 9.544L176.604 8.552Z" fill="#1C4DA1"/>
<path d="M183.108 10.504H185.076V11.528H185.204C185.45 11.1333 185.796 10.824 186.244 10.6C186.692 10.3653 187.178 10.248 187.7 10.248C188.682 10.248 189.428 10.5467 189.94 11.144C190.452 11.7413 190.708 12.5573 190.708 13.592V18.664H188.612V13.848C188.612 13.3253 188.479 12.92 188.212 12.632C187.946 12.344 187.572 12.2 187.092 12.2C186.527 12.2 186.068 12.4187 185.716 12.856C185.375 13.2933 185.204 13.8427 185.204 14.504V18.664H183.108V10.504Z" fill="#1C4DA1"/>
<path d="M196.437 7.208H198.533V18.664H196.437V7.208Z" fill="#1C4DA1"/>
<path d="M203.137 18.28L199.697 10.504H202.081L204.193 15.576H204.321L206.353 10.504H208.689L203.649 22.12H201.393L203.137 18.28ZM204.033 6.76H206.481L205.041 8.936H203.361L204.033 6.76Z" fill="#1C4DA1"/>
<path d="M71.2577 37.9632H69.6001V35.2752H71.2577V28.8016H76.7681C78.4556 28.8016 79.934 29.1451 81.2033 29.832C82.4726 30.504 83.4433 31.4597 84.1153 32.6992C84.8022 33.9237 85.1457 35.3349 85.1457 36.9328C85.1457 38.5307 84.8022 39.9493 84.1153 41.1888C83.4433 42.4133 82.4726 43.3691 81.2033 44.056C79.934 44.728 78.4556 45.064 76.7681 45.064H71.2577V37.9632ZM76.6561 41.9728C78.3585 41.9728 79.6502 41.5248 80.5313 40.6288C81.4273 39.7328 81.8753 38.5008 81.8753 36.9328C81.8753 35.3648 81.4273 34.1328 80.5313 33.2368C79.6502 32.3408 78.3585 31.8928 76.6561 31.8928H74.4833V35.2752H78.6049V37.9632H74.4833V41.9728H76.6561Z" fill="#32B788"/>
<path d="M90.9973 45.4224C89.7579 45.4224 88.7349 45.0565 87.9285 44.3248C87.1371 43.5931 86.7413 42.6373 86.7413 41.4576C86.7413 40.6661 86.9504 39.9717 87.3685 39.3744C87.7867 38.7771 88.3541 38.3216 89.0709 38.008C89.7877 37.6795 90.5792 37.5152 91.4453 37.5152C92.64 37.5152 93.6107 37.672 94.3573 37.9856V37.6496C94.3573 37.0523 94.1333 36.5744 93.6853 36.216C93.2373 35.8427 92.6325 35.656 91.8709 35.656C91.3483 35.656 90.8405 35.7755 90.3477 36.0144C89.8699 36.2533 89.4517 36.5968 89.0933 37.0448L87.0325 35.432C87.6448 34.6405 88.3765 34.0507 89.2277 33.6624C90.0789 33.2592 91.0048 33.0576 92.0053 33.0576C93.7824 33.0576 95.1339 33.4757 96.0597 34.312C97.0005 35.1333 97.4709 36.3355 97.4709 37.9184V45.064H94.3573V43.8992H94.3349C94.0064 44.3323 93.5509 44.6981 92.9685 44.9968C92.4011 45.2805 91.744 45.4224 90.9973 45.4224ZM91.6917 42.9136C92.5131 42.9136 93.1627 42.6523 93.6405 42.1296C94.1184 41.6069 94.3573 41.0171 94.3573 40.36C93.6555 40.0315 92.8939 39.8672 92.0725 39.8672C90.624 39.8672 89.8997 40.3973 89.8997 41.4576C89.8997 41.8907 90.0491 42.2416 90.3477 42.5104C90.6613 42.7792 91.1093 42.9136 91.6917 42.9136ZM95.4325 25.6208H99.1061L96.7317 28.6672H94.4021L95.4325 25.6208ZM88.1301 31.2432L90.7509 28.3536H93.3941L96.0149 31.2432V31.5792H93.0357L92.1397 30.28H92.0053L91.1093 31.5792H88.1301V31.2432Z" fill="#32B788"/>
<path d="M103.957 45.4224C102.553 45.4224 101.478 44.9893 100.731 44.1232C99.9995 43.2421 99.6336 42.0251 99.6336 40.472V33.416H102.792V40.1136C102.792 40.8603 102.964 41.4427 103.307 41.8608C103.666 42.2789 104.136 42.488 104.718 42.488C105.525 42.488 106.159 42.1968 106.622 41.6144C107.1 41.0171 107.339 40.2629 107.339 39.352V33.416H110.498V45.064H107.518V43.6304C107.19 44.168 106.705 44.6011 106.062 44.9296C105.42 45.2581 104.718 45.4224 103.957 45.4224Z" fill="#32B788"/>
<path d="M123.26 45.2432C122.678 45.2432 122.14 45.1536 121.647 44.9744C121.154 44.7952 120.759 44.5563 120.46 44.2576C119.728 43.5557 119.362 42.5701 119.362 41.3008V36.1488H117.369V33.416H119.362V30.1904H122.521V33.416H125.321V36.1488H122.521V40.7632C122.521 41.3157 122.64 41.7115 122.879 41.9504C123.058 42.1595 123.387 42.264 123.865 42.264C124.134 42.264 124.358 42.2341 124.537 42.1744C124.716 42.0997 125.007 41.9355 125.41 41.6816V44.8176C124.709 45.1013 123.992 45.2432 123.26 45.2432Z" fill="#32B788"/>
<path d="M127.642 28.8016H130.8V32.968L130.621 34.8496C130.935 34.3269 131.412 33.9013 132.055 33.5728C132.712 33.2293 133.414 33.0576 134.16 33.0576C135.579 33.0576 136.669 33.4832 137.431 34.3344C138.192 35.1856 138.573 36.3579 138.573 37.8512V45.064H135.415V38.2096C135.415 37.5077 135.228 36.9701 134.855 36.5968C134.481 36.2085 133.981 36.0144 133.354 36.0144C132.607 36.0144 131.995 36.3205 131.517 36.9328C131.039 37.5301 130.8 38.2693 130.8 39.1504V45.064H127.642V28.8016Z" fill="#32B788"/>
<path d="M144.63 45.4224C143.391 45.4224 142.368 45.0565 141.562 44.3248C140.77 43.5931 140.374 42.6373 140.374 41.4576C140.374 40.6661 140.584 39.9717 141.002 39.3744C141.42 38.7771 141.987 38.3216 142.704 38.008C143.421 37.6795 144.212 37.5152 145.078 37.5152C146.273 37.5152 147.244 37.672 147.99 37.9856V37.6496C147.99 37.0523 147.766 36.5744 147.318 36.216C146.87 35.8427 146.266 35.656 145.504 35.656C144.981 35.656 144.474 35.7755 143.981 36.0144C143.503 36.2533 143.085 36.5968 142.726 37.0448L140.666 35.432C141.278 34.6405 142.01 34.0507 142.861 33.6624C143.712 33.2592 144.638 33.0576 145.638 33.0576C147.416 33.0576 148.767 33.4757 149.693 34.312C150.634 35.1333 151.104 36.3355 151.104 37.9184V45.064H147.99V43.8992H147.968C147.64 44.3323 147.184 44.6981 146.602 44.9968C146.034 45.2805 145.377 45.4224 144.63 45.4224ZM145.325 42.9136C146.146 42.9136 146.796 42.6523 147.274 42.1296C147.752 41.6069 147.99 41.0171 147.99 40.36C147.289 40.0315 146.527 39.8672 145.706 39.8672C144.257 39.8672 143.533 40.3973 143.533 41.4576C143.533 41.8907 143.682 42.2416 143.981 42.5104C144.294 42.7792 144.742 42.9136 145.325 42.9136ZM145.885 25.7104H149.558L150.589 28.7568H148.259L145.885 25.7104ZM141.763 31.2432L144.384 28.3536H147.027L149.648 31.2432V31.5792H146.669L145.773 30.28H145.638L144.742 31.5792H141.763V31.2432Z" fill="#32B788"/>
<path d="M157.59 45.4224C156.186 45.4224 155.111 44.9893 154.364 44.1232C153.633 43.2421 153.267 42.0251 153.267 40.472V33.416H156.425V40.1136C156.425 40.8603 156.597 41.4427 156.94 41.8608C157.299 42.2789 157.769 42.488 158.352 42.488C159.158 42.488 159.793 42.1968 160.256 41.6144C160.733 41.0171 160.972 40.2629 160.972 39.352V33.416H164.131V45.064H161.152V43.6304C160.823 44.168 160.338 44.6011 159.696 44.9296C159.053 45.2581 158.352 45.4224 157.59 45.4224Z" fill="#32B788"/>
<path d="M176.893 45.2432C176.311 45.2432 175.773 45.1536 175.28 44.9744C174.788 44.7952 174.392 44.5563 174.093 44.2576C173.361 43.5557 172.996 42.5701 172.996 41.3008V36.1488H171.002V33.416H172.996V30.1904H176.154V33.416H178.954V36.1488H176.154V40.7632C176.154 41.3157 176.273 41.7115 176.512 41.9504C176.692 42.1595 177.02 42.264 177.498 42.264C177.767 42.264 177.991 42.2341 178.17 42.1744C178.349 42.0997 178.64 41.9355 179.044 41.6816V44.8176C178.342 45.1013 177.625 45.2432 176.893 45.2432Z" fill="#32B788"/>
<path d="M181.275 28.8016H184.433V32.968L184.254 34.8496C184.568 34.3269 185.046 33.9013 185.688 33.5728C186.345 33.2293 187.047 33.0576 187.793 33.0576C189.212 33.0576 190.302 33.4832 191.064 34.3344C191.825 35.1856 192.206 36.3579 192.206 37.8512V45.064H189.048V38.2096C189.048 37.5077 188.861 36.9701 188.488 36.5968C188.114 36.2085 187.614 36.0144 186.987 36.0144C186.24 36.0144 185.628 36.3205 185.15 36.9328C184.672 37.5301 184.433 38.2693 184.433 39.1504V45.064H181.275V28.8016Z" fill="#32B788"/>
<path d="M199 45.4224C197.596 45.4224 196.521 44.9893 195.775 44.1232C195.043 43.2421 194.677 42.0251 194.677 40.472V33.416H197.835V40.1136C197.835 40.8603 198.007 41.4427 198.351 41.8608C198.709 42.2789 199.179 42.488 199.762 42.488C200.568 42.488 201.203 42.1968 201.666 41.6144C202.144 41.0171 202.383 40.2629 202.383 39.352V33.416H205.541V45.064H202.562V43.6304C202.233 44.168 201.748 44.6011 201.106 44.9296C200.464 45.2581 199.762 45.4224 199 45.4224Z" fill="#32B788"/>
<path d="M213.661 45.4224C212.466 45.4224 211.391 45.1536 210.435 44.616C209.494 44.0784 208.763 43.3392 208.24 42.3984C207.717 41.4576 207.456 40.4048 207.456 39.24C207.456 38.0901 207.717 37.0448 208.24 36.104C208.763 35.1483 209.494 34.4016 210.435 33.864C211.391 33.3264 212.466 33.0576 213.661 33.0576C214.841 33.0576 215.901 33.3264 216.842 33.864C217.797 34.4016 218.536 35.1483 219.059 36.104C219.582 37.0448 219.843 38.0901 219.843 39.24C219.843 40.4048 219.582 41.4576 219.059 42.3984C218.536 43.3392 217.797 44.0784 216.842 44.616C215.901 45.1536 214.841 45.4224 213.661 45.4224ZM213.661 42.488C214.213 42.488 214.714 42.3611 215.162 42.1072C215.625 41.8384 215.99 41.4651 216.259 40.9872C216.543 40.4944 216.685 39.912 216.685 39.24C216.685 38.5829 216.543 38.0155 216.259 37.5376C215.99 37.0448 215.625 36.6715 215.162 36.4176C214.714 36.1488 214.213 36.0144 213.661 36.0144C213.108 36.0144 212.601 36.1488 212.138 36.4176C211.69 36.6715 211.324 37.0448 211.04 37.5376C210.756 38.0155 210.614 38.5829 210.614 39.24C210.614 39.8971 210.756 40.472 211.04 40.9648C211.324 41.4576 211.69 41.8384 212.138 42.1072C212.601 42.3611 213.108 42.488 213.661 42.488ZM217.021 25.6208H220.694L218.32 28.6672H215.99L217.021 25.6208ZM209.718 31.2432L212.339 28.3536H214.982L217.603 31.2432V31.5792H214.624L213.728 30.28H213.594L212.698 31.5792H209.718V31.2432Z" fill="#32B788"/>
<path d="M227.128 45.4224C225.964 45.4224 224.911 45.1611 223.97 44.6384C223.044 44.1157 222.32 43.384 221.797 42.4432C221.275 41.4875 221.013 40.4197 221.013 39.24C221.013 38.0603 221.275 37 221.797 36.0592C222.32 35.1184 223.044 34.3867 223.97 33.864C224.911 33.3264 225.964 33.0576 227.128 33.0576C228.413 33.0576 229.518 33.3413 230.444 33.9088C231.384 34.4613 232.071 35.2827 232.504 36.3728L229.637 37.56C229.144 36.5296 228.308 36.0144 227.128 36.0144C226.262 36.0144 225.553 36.3131 225 36.9104C224.448 37.4928 224.172 38.2693 224.172 39.24C224.172 40.2256 224.448 41.0171 225 41.6144C225.553 42.1968 226.262 42.488 227.128 42.488C228.323 42.488 229.204 41.9429 229.772 40.8528L232.639 42.1072C232.101 43.1973 231.362 44.0261 230.421 44.5936C229.495 45.1461 228.398 45.4224 227.128 45.4224Z" fill="#32B788"/>
<path d="M4.92777 48.9466C2.52816 48.5876 0.366537 46.3336 0.0492337 44.1593C-0.248238 42.0449 1.27878 40.3494 4.33282 36.9784C6.11765 35.0036 7.36703 34.0063 14.7245 27.6032C15.0815 27.2841 15.5971 26.8453 15.9342 26.5461C18.1355 28.7602 20.2773 30.9145 22.4587 33.0887C21.6655 34.1259 20.5549 35.5621 19.1667 37.2177C12.543 45.0769 8.81473 49.545 4.92777 48.9466Z" fill="#1C4DA1"/>
<path d="M32.1763 8.29449C32.335 8.45407 32.5531 8.65354 32.7713 8.85301C35.4089 11.506 38.0464 14.1589 40.6245 16.7521C37.1937 20.163 33.8224 23.554 30.4708 26.8852C27.7341 24.1325 24.8784 21.2601 22.0425 18.4077C25.3742 15.0965 28.7455 11.7254 32.1763 8.29449Z" fill="#1C4DA1"/>
<path d="M18.2147 16.772C16.9455 16.5925 15.3589 15.4156 14.883 14.1589C14.407 12.9022 14.7838 11.845 15.7159 10.9075C18.651 7.97531 21.5463 5.02314 24.4814 2.11087C26.524 0.0762661 29.4789 0.953938 30.2127 3.78643C30.4705 4.82367 30.1135 5.6814 29.3996 6.39949C26.3059 9.53119 23.2122 12.6629 20.0788 15.7547C19.583 16.2334 18.8493 16.4329 18.2147 16.772Z" fill="#1C4DA1"/>
<path d="M44.1146 18.6271C46.0779 18.7867 47.0298 19.8638 47.7239 21.1205C48.3188 22.1777 47.9619 23.3146 46.9505 24.3519C43.9757 27.3639 40.9812 30.356 37.9867 33.368C37.0546 34.3055 35.9638 34.7443 34.774 34.126C33.5246 33.4677 32.3744 32.5501 32.4339 30.9544C32.4537 30.2562 32.771 29.4184 33.2469 28.9198C36.2415 25.7881 39.3154 22.7362 42.4091 19.7042C42.9445 19.1856 43.6981 18.8864 44.1146 18.6271Z" fill="#1C4DA1"/>
<path d="M26.8218 28.1817C26.1673 28.9198 25.4336 29.7575 24.7196 30.5754C22.6572 28.4809 20.6542 26.4264 18.5322 24.2721C19.2462 23.6338 20.0989 22.8758 20.912 22.1378C22.8951 24.1325 24.799 26.1072 26.8218 28.1817Z" fill="#1C4DA1"/>
<path d="M39.6445 44.7079V41.2921H43.8477V37H35.5937C32.2795 37 29.6001 39.6794 29.6001 42.9937C29.6001 46.3079 32.2795 48.9873 35.5937 48.9873H43.8477V44.7079H39.6445Z" fill="#1C4DA1"/>
<path d="M55.5176 37H47.2637V41.2921H51.4669V44.7079H47.251V49H55.5049C58.8192 49 61.4986 46.3206 61.4986 43.0063C61.5113 39.6794 58.8192 37 55.5176 37Z" fill="#32B788"/>
</svg>
